<svg viewBox="0 0 32 32" fill="none" xmlns="http://www.w3.org/2000/svg">
  <!-- Background circle with solid blue -->
  <circle cx="16" cy="16" r="16" fill="#2563eb" />
  
  <!-- Simplified neural network pattern -->
  <g>
    <!-- Central node -->
    <circle cx="16" cy="16" r="2.5" fill="white" />
    
    <!-- Left side nodes -->
    <circle cx="7" cy="11" r="2" fill="white" opacity="0.9" />
    <circle cx="7" cy="16" r="2" fill="white" opacity="0.9" />
    <circle cx="7" cy="21" r="2" fill="white" opacity="0.9" />
    
    <!-- Right side nodes -->
    <circle cx="25" cy="11" r="2" fill="white" opacity="0.9" />
    <circle cx="25" cy="16" r="2" fill="white" opacity="0.9" />
    <circle cx="25" cy="21" r="2" fill="white" opacity="0.9" />
    
    <!-- Connection lines -->
    <line x1="9" y1="11" x2="13.5" y2="13.5" stroke="white" strokeWidth="1.2" opacity="0.8" />
    <line x1="9" y1="16" x2="13.5" y2="16" stroke="white" strokeWidth="1.2" opacity="0.8" />
    <line x1="9" y1="21" x2="13.5" y2="18.5" stroke="white" strokeWidth="1.2" opacity="0.8" />
    
    <line x1="18.5" y1="13.5" x2="23" y2="11" stroke="white" strokeWidth="1.2" opacity="0.8" />
    <line x1="18.5" y1="16" x2="23" y2="16" stroke="white" strokeWidth="1.2" opacity="0.8" />
    <line x1="18.5" y1="18.5" x2="23" y2="21" stroke="white" strokeWidth="1.2" opacity="0.8" />
    
    <!-- Simplified comparison arrows -->
    <path d="M9 9 L12.5 6.5 L12.5 7.5 L19.5 7.5 L19.5 6.5 L23 9 L19.5 11.5 L19.5 10.5 L12.5 10.5 L12.5 11.5 Z"
      fill="white" opacity="0.9" />
    <path d="M9 23 L12.5 20.5 L12.5 21.5 L19.5 21.5 L19.5 20.5 L23 23 L19.5 25.5 L19.5 24.5 L12.5 24.5 L12.5 25.5 Z"
      fill="white" opacity="0.9" />
  </g>
</svg>
